{"title":"Indian Summers S02E01 x264 RB58.mp4","uid":13862520,"size":553725077,"categoryP":"video","categoryS":"tv_shows","magnet":"?xt=urn:btih:e45e2acd964b7faabedb5c2a65a78c326eb8683b&amp;dn=Indian+Summers+S02E01+x264+RB58.mp4&amp;tr=udp%3A%2F%2Ftracker.leechers-paradise.org%3A6969&amp;tr=udp%3A%2F%2Fzer0day.ch%3A1337&amp;tr=udp%3A%2F%2Fopen.demonii.com%3A1337&amp;tr=udp%3A%2F%2Ftracker.coppersurfer.tk%3A6969&amp;tr=udp%3A%2F%2Fexodus.desync.com%3A6969","seeders":1,"leechers":0,"uploader":"RedBaron58","files":1,"time":1458043377,"description":"Indian Summers S02E01 x264 mp4\r\n \nhttp://www.imdb.com/title/tt3706628/\r\n\r\nTrailer:\r\n\r\n\r\nPlease be patient My intial upload speed is limited.\r\nThank you for your kind comments and feedback on my other torrents, your feedback is welcome.\r\n\r\n\r\nAbout the Episode:\r\nThe drama series set in 1930s colonial India returns, picking up the story three years on \r\nfrom the first series. \r\nThe British viceroy is seriously injured in a terrorist attack. \r\nAafrin is suspected of being involved and tries to keep his double life as a nationalist \r\nspy a secret. He discovers Alice has now married an Englishman, but their feelings for \r\neach other remain unresolved. \r\nCynthia pushes Ralph to advance his career, but Madeleine has other plans.\r\n\r\n\r\nI hope you enjoy.\r\n\r\n\r\nTechnical:\r\n\r\nGeneral\r\nComplete name                            : G:Indian Summers S02E01 x264 RB58.mp4\r\nFormat                                   : MPEG-4\r\nFormat profile                           : Base Media\r\nCodec ID                                 : isom\r\nFile size                                : 528 MiB\r\nDuration                                 : 48mn 20s\r\nOverall bit rate                         : 1 527 Kbps\r\nWriting application                      : Lavf54.63.104\r\n\r\nVideo\r\nID                                       : 1\r\nFormat                                   : AVC\r\nFormat/Info                              : Advanced Video Codec\r\nFormat profile                           :   \r\nFormat settings, CABAC                   : Yes\r\nFormat settings, ReFrames                : 4 frames\r\nCodec ID                                 : avc1\r\nCodec ID/Info                            : Advanced Video Coding\r\nDuration                                 : 48mn 20s\r\nBit rate                                 : 1 400 Kbps\r\nWidth                                    : 832 pixels\r\nHeight                                   : 468 pixels\r\nDisplay aspect ratio                     : 16:9\r\nFrame rate mode                          : Constant\r\nFrame rate                               : 25.000 fps\r\nColor space                              : YUV\r\nChroma subsampling                       : 4:2:0\r\nBit depth                                : 8 bits\r\nScan type                                : Progressive\r\nBits/(Pixel*Frame)                       : 0.144\r\nStream size                              : 484 MiB (92%)\r\nWriting library                          : x264 core 123 r2189 35cf912\r\nEncoding settings                        : cabac=1 / ref=3 / deblock=1:0:0\r\n\r\nAudio\r\nID                                       : 2\r\nFormat                                   : AAC\r\nFormat/Info                              : Advanced Audio Codec\r\nFormat profile                           : LC\r\nCodec ID                                 : 40\r\nDuration                                 : 48mn 19s\r\nBit rate mode                            : Constant\r\nBit rate                                 : 119 Kbps\r\nChannel(s)                               : 2 channels\r\nChannel positions                        : Front: L R\r\nSampling rate                            : 48.0 KHz\r\nCompression mode                         : Lossy\r\nStream size                              : 41.1 MiB (8%)","torrent":{"xt":"urn:btih:e45e2acd964b7faabedb5c2a65a78c326eb8683b","amp;dn":"Indian+Summers+S02E01+x264+RB58.mp4","amp;tr":["udp%3A%2F%2Ftracker.leechers-paradise.org%3A6969","udp%3A%2F%2Fzer0day.ch%3A1337","udp%3A%2F%2Fopen.demonii.com%3A1337","udp%3A%2F%2Ftracker.coppersurfer.tk%3A6969","udp%3A%2F%2Fexodus.desync.com%3A6969"],"infoHash":"e45e2acd964b7faabedb5c2a65a78c326eb8683b","infoHashBuffer":{"type":"Buffer","data":[228,94,42,205,150,75,127,170,190,219,92,42,101,167,140,50,110,184,104,59]},"announce":[],"urlList":[]}}